<?xml version="1.0" encoding="utf-8"?>
<!-- Generator: Adobe Illustrator 20.1.0, SVG Export Plug-In . SVG Version: 6.00 Build 0)  -->
<svg version="1.1" id="Layer_1" xmlns="http://www.w3.org/2000/svg" xmlns:xlink="http://www.w3.org/1999/xlink" x="0px" y="0px"
	 viewBox="0 0 160 50" style="enable-background:new 0 0 160 50;" xml:space="preserve">
<style type="text/css">
	.st0{fill:#FFFFFF;}
	.st1{fill-rule:evenodd;clip-rule:evenodd;fill:#FFFFFF;}
	.st2{fill:#25A6B3;}
	.st3{fill:#0065B3;}
	.st4{fill-rule:evenodd;clip-rule:evenodd;fill:#00A8B5;}
	.st5{fill:#00A8B5;}
	.st6{fill-rule:evenodd;clip-rule:evenodd;fill:#FCB134;}
</style>
<path class="st3" d="M86,9.7l-3.9,7c-1.5-1.2-3.2-2-5.5-2c-5.4,0-7.4,4-7.4,6.8c0,2.1,1.2,5.2,6,5.2c2.4,0,5-1.1,6.2-2l-3.8,7.9
	c-1.8,0.6-2.9,0.8-4.5,0.9c-8.6,0.3-11.8-5-11.8-10.3c0-7.1,6.1-15.7,16.6-15.7c0.6,0,1.3,0.1,1.9,0.5l0.7-0.6L86,9.7z"/>
<path class="st3" d="M102,7.6l1.1,25.3h-7.8l-0.2-4.3h-5.7l-1.8,4.3h-9l9.1-17.7h-1.8l4.2-7.6H102z M94.7,16l-2.8,6.7h3L94.7,16z"/>
<path class="st3" d="M56.2,7.6c4,0,6.3,2.2,6.3,5.3c0,2.9-2.4,5.4-5,6.8c2.7,1,2.9,3.4,2.9,5.1c0,4.1-4.2,8-9.6,8H38.9l4.4-17.6
	l-1.9,0l3.7-7.6C45.2,7.6,52.9,7.6,56.2,7.6 M52.1,17.7c0.8,0,2.3-0.2,2.7-1.8c0.4-1.7-1-1.8-1.6-1.8l-2.3,0l-0.9,3.6H52.1z
	 M48.8,22.3l-1.1,4.1h2.8c1.1,0,2.6-0.5,2.9-1.9c0.4-1.4-0.7-2.3-1.8-2.3H48.8z"/>
<path class="st3" d="M18.4,35.4c-4.1,0-8.3-1-12.5-2.9l-0.1-0.1l-0.1-0.1C3.8,28.4,2.8,24.2,2.8,20c0-4.2,1-8.2,2.8-12.1l0.1-0.1
	l0.1,0C9.7,6,13.9,5.1,18.3,5.1c4.1,0,8.4,1,12.5,2.9l0.1,0l0,0.1c1.9,4,2.9,8.2,2.9,12.3c0,4.1-1,8.2-2.9,12.1l0,0.1l-0.1,0
	C27,34.5,22.7,35.4,18.4,35.4 M6.3,32c4.1,1.9,8.1,2.8,12.1,2.8c4.2,0,8.4-0.9,12.1-2.6c1.8-3.8,2.8-7.8,2.8-11.7
	c0-4-1-8.1-2.8-11.9c-4-1.8-8.2-2.8-12.1-2.8c-4.2,0-8.3,0.9-12,2.6C4.4,12.1,3.5,16,3.5,20C3.5,24.1,4.5,28.2,6.3,32"/>
<path class="st3" d="M17.6,27.8c0-1.2,0-4.4,0-4.8c0-4.8-3.5-8.2-5.7-7.9c-1.5,0.1-2.8,0.8-3.5,2.5c-0.6,1.7-0.1,3.9,2,4.4
	c2.3,0.6,3.6,1,4.5,1.7c1.2,0.8,2.1,2.3,2.1,4.1L17.6,27.8z"/>
<path class="st3" d="M16.7,27.8c0-1.5-0.9-2.9-2-3.7c-1-0.7-2.3-1.1-4.5-1.6c-0.7-0.2-1.4-0.6-1.6-1C8,22.1,7.9,23.4,8,24.1
	c0.1,0.9,1.1,2.3,2.7,2.4c0.9,0,2.1-0.2,2.7-0.3c1-0.2,2.5,0.4,2.8,1.6L16.7,27.8z"/>
<path class="st3" d="M18.4,7.6c-2.6,0-4.9,1.7-4.9,4.7c0,2.5,2,3.9,2.7,4.8c1.1,1.5,1.7,3.2,1.7,5.8c0.1,2.1,0,4.2,0.1,4.9h0.6
	c0-0.8,0-3,0-5c0-2.6,0.6-4.3,1.7-5.7c0.7-1,2.7-2.3,2.8-4.8c0-3-2.2-4.7-4.9-4.7"/>
<path class="st3" d="M19.1,27.8c0-1.2,0-4.4,0-4.8c0-4.8,3.5-8.2,5.7-7.9c1.5,0.1,2.8,0.8,3.5,2.5c0.6,1.7,0.1,3.9-2,4.4
	c-2.3,0.6-3.6,1-4.5,1.7c-1.2,0.8-2.1,2.3-2.1,4.1L19.1,27.8z"/>
<path class="st3" d="M20,27.8c0-1.5,0.9-2.9,2-3.7c1-0.7,2.3-1.1,4.5-1.6c0.7-0.2,1.4-0.6,1.6-1c0.6,0.6,0.7,1.9,0.6,2.6
	c-0.1,0.9-1.1,2.3-2.7,2.4c-0.9,0-2.1-0.2-2.7-0.3c-1-0.2-2.5,0.4-2.8,1.6L20,27.8z"/>
<path class="st3" d="M20.8,32.8l-0.3-2.4l0.8-0.1c0.2,0,0.4,0,0.5,0.1c0.1,0.1,0.1,0.2,0.2,0.4c0,0.2,0,0.4-0.3,0.6v0
	c0.3,0,0.4,0.2,0.5,0.5c0,0.1,0,0.2,0,0.4c-0.1,0.3-0.2,0.4-0.6,0.5L20.8,32.8z M21.3,32.3c0.1,0,0.2,0,0.3-0.1
	c0.1-0.1,0.1-0.2,0.1-0.4c0-0.3-0.1-0.4-0.4-0.3l-0.2,0L21.3,32.3L21.3,32.3z M21.1,31.2c0.1,0,0.3,0,0.3-0.1c0-0.1,0.1-0.1,0-0.3
	c0-0.2-0.1-0.3-0.3-0.2l-0.2,0L21.1,31.2L21.1,31.2z"/>
<path class="st3" d="M24.3,31.3c0,0,0,0.1,0,0.1c0.1,0.4,0,0.8-0.5,0.9c-0.7,0.1-0.9-0.3-1-1l-0.1-0.3c-0.1-0.6-0.1-1.1,0.6-1.2
	c0.4-0.1,0.7,0.1,0.8,0.5c0,0.1,0,0.1,0,0.2l-0.4,0.1c0-0.2-0.1-0.4-0.3-0.4c-0.4,0-0.2,0.5-0.2,0.7l0.1,0.7c0,0.2,0.1,0.5,0.4,0.5
	c0.3-0.1,0.1-0.4,0.1-0.6L24.3,31.3z"/>
<path class="st3" d="M25,32.1l-0.2-2.5l0.6-0.2l1.2,2.2l-0.5,0.1l-0.3-0.6l-0.5,0.2l0.1,0.6L25,32.1z M25.4,30.9l0.4-0.1l-0.5-1
	L25.4,30.9z"/>
<path class="st3" d="M10.2,30.2c0.2-0.6,0.4-1,1.1-0.8c0.4,0.1,0.6,0.3,0.6,0.7c0,0.1,0,0.2-0.1,0.3l-0.4-0.1
	c0.1-0.2,0.1-0.4-0.2-0.5c-0.4-0.1-0.4,0.3-0.5,0.5l-0.2,0.7c-0.1,0.2-0.1,0.5,0.2,0.6c0.3,0.1,0.4-0.2,0.5-0.5l-0.3-0.1l0.1-0.4
	l0.7,0.2L11.4,32L11,31.9l0.1-0.3h0c-0.2,0.2-0.3,0.2-0.5,0.2c-0.7-0.2-0.7-0.7-0.5-1.3L10.2,30.2z"/>
<path class="st3" d="M12.9,31.2l-0.2,1l-0.5-0.1l0.5-2.4l0.8,0.2c0.5,0.1,0.6,0.3,0.6,0.8c0,0.3-0.2,0.5-0.5,0.5l0,0
	c0.3,0.1,0.3,0.2,0.2,0.5c0,0.1-0.2,0.7-0.1,0.8v0.1l-0.5-0.1c0-0.2,0.1-0.5,0.1-0.6c0-0.1,0.1-0.4-0.1-0.4
	c-0.1-0.1-0.2-0.1-0.3-0.1L12.9,31.2z M13,30.9l0.3,0.1c0.2,0,0.3-0.1,0.4-0.3c0-0.2,0-0.3-0.2-0.4l-0.4-0.1L13,30.9z"/>
<path class="st3" d="M16.1,30.3l0.5,0.1L16.4,32c-0.1,0.5-0.3,0.8-0.9,0.7c-0.6-0.1-0.8-0.4-0.7-0.9l0.2-1.7l0.5,0.1l-0.2,1.7
	c0,0.2-0.1,0.5,0.3,0.5c0.3,0,0.4-0.2,0.4-0.4L16.1,30.3z"/>
<path class="st3" d="M17.2,32.8l0.1-2.4l0.9,0c0.4,0,0.6,0.4,0.6,0.7c0,0.2-0.1,0.4-0.2,0.6c-0.1,0.1-0.3,0.1-0.5,0.1l-0.3,0l0,1
	L17.2,32.8z M17.7,31.4l0.2,0c0.2,0,0.3-0.1,0.3-0.4c0-0.3-0.1-0.3-0.4-0.3l-0.2,0L17.7,31.4z"/>
<path class="st4" d="M124.5,32.9h6.6l2.1-12.6h3.6l0.9-5.1h-3.6l0.1-0.7c0.2-0.9,0.5-1.2,0.8-1.4c0.4-0.3,1-0.4,1.6-0.4
	c0.6,0,1.4,0.2,1.4,0.2l1.5-4.5c-1-0.3-2.4-0.7-3.8-0.7c-2.7,0-4.2,0.8-5.5,1.7c-1.2,1-2.3,3.2-2.7,5.9h-2.5l-0.9,5.1h2.5
	L124.5,32.9z"/>
<polygon class="st5" points="110.1,7.5 116.6,7.5 112.2,32.9 105.7,32.9 "/>
<polygon class="st4" points="117,15.1 123.5,15.1 120.5,32.9 113.9,32.9 "/>
<path class="st4" d="M155.9,28.2c-0.9,1.4-1.4,1.9-2.6,2.8c-1,0.8-1.7,1.1-2.9,1.6c-2,0.8-3.7,0.7-5.5,0.8c-2.8,0-4.8-0.8-6.2-2.1
	c-1.2-1.1-1.7-2.2-2-3.9c-0.5-2.5,0.4-4.9,0.4-4.9c0.4-1.2,0.8-2.1,0.8-2.1c0.6-1.2,1.7-2.3,3.2-3.4c1.4-1,2.3-1.3,4-1.8
	c1.3-0.3,2.3-0.5,3.4-0.5c2.5,0,4.4,0.6,6.1,1.8c1.7,1.2,2.6,3.2,2.5,5.9c0,1-0.2,2-0.4,3.1h-13.5c-0.1,1,0.1,1.7,0.5,2.4
	c0.3,0.7,1.4,1.3,2.4,1.3c1.4-0.1,2.6-0.6,3.1-1.5L155.9,28.2z M150.4,22.4c0.1-1.7,0-2.1-0.6-2.8c-0.4-0.4-1.1-0.7-2-0.7
	c-1.9,0-3.3,1.5-3.9,3.5H150.4z"/>
<path class="st6" d="M117.8,10.8c0-1.8,1.5-3.3,3.3-3.3c1.8,0,3.3,1.5,3.3,3.3c0,1.8-1.5,3.3-3.3,3.3
	C119.3,14.1,117.8,12.6,117.8,10.8"/>
<path class="st3" d="M42.4,39.4c0-0.6-0.5-0.9-1-0.9c-0.5,0-1.1,0.1-1.1,0.6c0,0.5,0.7,0.6,1.3,0.9c0.7,0.3,1.3,0.6,1.3,1.4
	c0,1.1-1.1,1.5-2,1.5c-1.1,0-2-0.4-2-1.7h0.8c0,0.7,0.6,1,1.3,1c0.5,0,1.1-0.2,1.1-0.8c0-0.5-0.7-0.7-1.3-0.9
	c-0.7-0.3-1.3-0.6-1.3-1.3c0-0.9,0.9-1.4,1.8-1.4c0.9,0,1.9,0.4,1.9,1.6H42.4z"/>
<path class="st3" d="M44.6,40.7c0,0.1,0,0.3,0,0.4c0,0.8,0.6,1.2,1.3,1.2c0.7,0,1.2-0.3,1.4-1h0.8c-0.3,1.1-1.2,1.7-2.3,1.7
	c-1.6,0-2.1-1.1-2.1-2c0-1.9,1.2-3.2,2.6-3.2c1.5,0,2.1,0.8,2.1,2.2c0,0.3,0,0.5-0.1,0.6H44.6z M47.6,40c0.1-0.7-0.3-1.4-1.2-1.4
	c-1,0-1.5,0.6-1.7,1.4H47.6z"/>
<path class="st3" d="M49.8,38h0.8l-0.2,0.8h0c0.4-0.6,1.1-0.9,1.8-0.9c0.9,0,1.4,0.4,1.4,1.3c0,0.2-0.1,0.6-0.1,1l-0.6,2.8H52
	l0.6-2.9c0-0.2,0.1-0.6,0.1-0.8c0-0.5-0.4-0.7-0.9-0.7c-0.5,0-0.9,0.3-1.2,0.6c-0.3,0.2-0.4,0.6-0.5,1l-0.6,2.8h-0.8L49.8,38z"/>
<path class="st3" d="M54.6,39.5c0.2-1.1,1.1-1.6,2.2-1.6c1,0,1.8,0.3,1.8,1.3c0,0.3-0.1,0.6-0.2,0.9l-0.3,1.4c0,0.2-0.1,0.5-0.1,0.7
	c0,0.2,0.1,0.3,0.2,0.3c0.1,0,0.2,0,0.3-0.1l-0.1,0.6C58.3,43,58,43,57.9,43c-0.5,0-0.7-0.3-0.6-0.7l0,0c-0.3,0.5-0.8,0.7-1.7,0.7
	c-0.8,0-1.5-0.4-1.5-1.4c0-1.4,1.4-1.5,2.5-1.6c0.9-0.1,1.2-0.1,1.2-0.8c0-0.5-0.6-0.7-1-0.7c-0.6,0-1.2,0.3-1.3,0.9H54.6z
	 M55.7,42.3c0.6,0,1.1-0.2,1.4-0.7c0.3-0.4,0.3-0.8,0.4-1.3h0c-0.4,0.2-1,0.3-1.6,0.3c-0.6,0.1-1.1,0.3-1.1,0.9
	C54.9,42.1,55.3,42.3,55.7,42.3"/>
<path class="st3" d="M60.1,38h0.8l-0.2,0.8h0c0.4-0.6,1.1-0.9,1.8-0.9c0.9,0,1.4,0.4,1.4,1.3c0,0.2-0.1,0.6-0.1,1l-0.6,2.8h-0.8
	L63,40c0-0.2,0.1-0.6,0.1-0.8c0-0.5-0.4-0.7-0.9-0.7c-0.5,0-0.9,0.3-1.2,0.6c-0.3,0.2-0.4,0.6-0.5,1l-0.6,2.8h-0.8L60.1,38z"/>
<path class="st3" d="M66.6,38h1l-0.2,0.7h-1l-0.6,2.9c0,0.1,0,0.2,0,0.3c0,0.3,0.2,0.3,0.5,0.3c0.2,0,0.3,0,0.5-0.1l-0.1,0.7
	C66.4,43,66.2,43,66,43c-0.6,0-1.1-0.2-1.1-0.8c0-0.1,0-0.3,0-0.4l0.7-3.1h-0.8l0.2-0.7h0.8l0.3-1.5h0.8L66.6,38z"/>
<path class="st3" d="M68.5,38h0.8l-1,5h-0.8L68.5,38z M69.5,37.1h-0.8l0.2-1h0.8L69.5,37.1z"/>
<path class="st3" d="M70.1,39.5c0.2-1.1,1.1-1.6,2.2-1.6c1,0,1.8,0.3,1.8,1.3c0,0.3-0.1,0.6-0.2,0.9l-0.3,1.4c0,0.2-0.1,0.5-0.1,0.7
	c0,0.2,0.1,0.3,0.2,0.3c0.1,0,0.2,0,0.3-0.1l-0.1,0.6C73.8,43,73.5,43,73.4,43c-0.5,0-0.7-0.3-0.6-0.7l0,0c-0.3,0.5-0.8,0.7-1.7,0.7
	c-0.8,0-1.5-0.4-1.5-1.4c0-1.4,1.4-1.5,2.5-1.6c0.9-0.1,1.3-0.1,1.3-0.8c0-0.5-0.6-0.7-1-0.7c-0.6,0-1.2,0.3-1.3,0.9H70.1z
	 M71.3,42.3c0.6,0,1.1-0.2,1.4-0.7c0.3-0.4,0.3-0.8,0.4-1.3h0c-0.4,0.2-1,0.3-1.6,0.3c-0.6,0.1-1.1,0.3-1.1,0.9
	C70.4,42.1,70.8,42.3,71.3,42.3"/>
<path class="st3" d="M78,39.4c0-0.6-0.5-0.9-1-0.9c-0.5,0-1.1,0.1-1.1,0.6c0,0.5,0.7,0.6,1.3,0.9c0.7,0.3,1.3,0.6,1.3,1.4
	c0,1.1-1.1,1.5-2,1.5c-1.1,0-2-0.4-2-1.7h0.8c0,0.7,0.6,1,1.3,1c0.5,0,1.1-0.2,1.1-0.8c0-0.5-0.7-0.7-1.3-0.9
	c-0.7-0.3-1.3-0.6-1.3-1.3c0-0.9,0.9-1.4,1.8-1.4c0.9,0,1.9,0.4,1.9,1.6H78z"/>
<path class="st3" d="M79.8,39.5c0.2-1.1,1.1-1.6,2.2-1.6c1,0,1.8,0.3,1.8,1.3c0,0.3-0.1,0.6-0.2,0.9l-0.3,1.4c0,0.2-0.1,0.5-0.1,0.7
	c0,0.2,0.1,0.3,0.2,0.3c0.1,0,0.2,0,0.3-0.1l-0.1,0.6C83.4,43,83.1,43,83,43c-0.5,0-0.7-0.3-0.6-0.7l0,0C82,42.8,81.5,43,80.7,43
	c-0.8,0-1.5-0.4-1.5-1.4c0-1.4,1.4-1.5,2.5-1.6c0.9-0.1,1.3-0.1,1.3-0.8c0-0.5-0.6-0.7-1-0.7c-0.6,0-1.2,0.3-1.3,0.9H79.8z
	 M80.9,42.3c0.6,0,1.1-0.2,1.4-0.7c0.3-0.4,0.3-0.8,0.4-1.3h0c-0.4,0.2-1,0.3-1.6,0.3C80.5,40.8,80,41,80,41.6
	C80,42.1,80.4,42.3,80.9,42.3"/>
<path class="st3" d="M87.9,38h0.8l-0.2,0.7l0,0c0.4-0.5,1-0.9,1.7-0.9c0.6,0,1.1,0.3,1.3,0.9c0.4-0.5,1-0.9,1.7-0.9
	c0.7,0,1.4,0.3,1.4,1.1c0,0.3-0.1,0.7-0.1,1l-0.6,3H93l0.7-3.2c0-0.2,0.1-0.4,0.1-0.5c0-0.4-0.3-0.7-0.8-0.7c-0.5,0-1,0.3-1.2,0.7
	c-0.3,0.3-0.4,0.7-0.5,1.1l-0.5,2.6h-0.8l0.6-2.8c0.1-0.4,0.2-0.8,0.2-0.9c0-0.4-0.2-0.7-0.7-0.7c-0.5,0-0.9,0.3-1.2,0.6
	c-0.3,0.3-0.4,0.6-0.5,1.1l-0.6,2.6h-0.8L87.9,38z"/>
<path class="st3" d="M96.1,40.7c0,0.1,0,0.3,0,0.4c0,0.8,0.6,1.2,1.3,1.2c0.7,0,1.2-0.3,1.4-1h0.8c-0.3,1.1-1.2,1.7-2.3,1.7
	c-1.6,0-2.1-1.1-2.1-2c0-1.9,1.2-3.2,2.6-3.2c1.5,0,2.1,0.8,2.1,2.2c0,0.3,0,0.5-0.1,0.6H96.1z M99.1,40c0.1-0.7-0.3-1.4-1.2-1.4
	c-1,0-1.5,0.6-1.7,1.4H99.1z"/>
<polygon class="st3" points="101.7,36.1 102.5,36.1 101.1,42.9 100.2,42.9 "/>
<path class="st3" d="M103.4,38h0.8l-1,5h-0.8L103.4,38z M104.4,37.1h-0.8l0.2-1h0.8L104.4,37.1z"/>
<path class="st3" d="M105.6,38h0.8l-0.2,0.8h0c0.4-0.6,1.1-0.9,1.8-0.9c0.9,0,1.4,0.4,1.4,1.3c0,0.2-0.1,0.6-0.1,1l-0.6,2.8h-0.8
	l0.6-2.9c0-0.2,0.1-0.6,0.1-0.8c0-0.5-0.4-0.7-0.9-0.7c-0.5,0-0.9,0.3-1.2,0.6c-0.3,0.2-0.4,0.6-0.5,1l-0.6,2.8h-0.8L105.6,38z"/>
<path class="st3" d="M114.3,42.9h-0.8l0.2-0.7h0c-0.5,0.6-1,0.8-1.6,0.8c-1.3,0-2-0.8-2-2c0-1.5,1-3.2,2.8-3.2
	c0.6,0,1.4,0.2,1.5,0.9h0l0.5-2.7h0.8L114.3,42.9z M112.2,42.3c1.2,0,1.9-1.4,1.9-2.5c0-0.7-0.4-1.3-1.2-1.3c-1.3,0-2,1.3-2,2.4
	C110.9,41.8,111.3,42.3,112.2,42.3"/>
<path class="st3" d="M119.6,42.9h-0.8l0.2-0.8h0c-0.4,0.6-1.1,0.9-1.8,0.9c-0.9,0-1.4-0.4-1.4-1.3c0-0.2,0.1-0.6,0.1-1l0.6-2.8h0.8
	l-0.6,2.9c0,0.2-0.1,0.6-0.1,0.8c0,0.5,0.4,0.7,0.9,0.7c0.9,0,1.6-0.8,1.8-1.6l0.6-2.8h0.8L119.6,42.9z"/>
<path class="st3" d="M121.9,38h0.8l-0.2,0.8h0c0.4-0.6,1.1-0.9,1.8-0.9c0.9,0,1.4,0.4,1.4,1.3c0,0.2-0.1,0.6-0.1,1l-0.6,2.8h-0.8
	l0.6-2.9c0-0.2,0.1-0.6,0.1-0.8c0-0.5-0.4-0.7-0.9-0.7c-0.5,0-0.9,0.3-1.2,0.6c-0.3,0.2-0.4,0.6-0.5,1l-0.6,2.8h-0.8L121.9,38z"/>
<path class="st3" d="M130.7,42.2c-0.1,0.5-0.2,1-0.4,1.4c-0.4,1-1.2,1.4-2.3,1.4c-1,0-2-0.4-2-1.5h0.8c0,0.7,0.6,0.8,1.2,0.8
	c1.3,0,1.5-1,1.8-2l0,0c-0.4,0.5-0.9,0.8-1.5,0.8c-1.2,0-1.9-0.9-1.9-2.1c0-1.5,1-3.1,2.6-3.1c0.7,0,1.4,0.4,1.6,1v0h0l0.2-0.9h0.8
	L130.7,42.2z M128.5,42.2c1.2,0,1.8-1.4,1.8-2.4c0-0.8-0.4-1.3-1.3-1.3c-1.1,0-1.8,1.4-1.8,2.3C127.3,41.6,127.7,42.2,128.5,42.2"/>
<path class="st3" d="M132.8,38h0.8l-1,5h-0.8L132.8,38z M133.8,37.1H133l0.2-1h0.8L133.8,37.1z"/>
<path class="st3" d="M137.1,39.5c0.2-1.1,1.1-1.6,2.2-1.6c1,0,1.8,0.3,1.8,1.3c0,0.3-0.1,0.6-0.2,0.9l-0.3,1.4
	c0,0.2-0.1,0.5-0.1,0.7c0,0.2,0.1,0.3,0.2,0.3c0.1,0,0.2,0,0.3-0.1l-0.1,0.6c-0.1,0.1-0.4,0.1-0.5,0.1c-0.5,0-0.7-0.3-0.6-0.7l0,0
	c-0.3,0.5-0.8,0.7-1.7,0.7c-0.8,0-1.5-0.4-1.5-1.4c0-1.4,1.4-1.5,2.5-1.6c0.9-0.1,1.3-0.1,1.3-0.8c0-0.5-0.6-0.7-1-0.7
	c-0.6,0-1.2,0.3-1.3,0.9H137.1z M138.2,42.3c0.6,0,1.1-0.2,1.4-0.7c0.3-0.4,0.3-0.8,0.4-1.3h0c-0.4,0.2-1,0.3-1.6,0.3
	c-0.6,0.1-1.1,0.3-1.1,0.9C137.4,42.1,137.8,42.3,138.2,42.3"/>
<path class="st3" d="M142.6,38h0.8l-0.2,0.8h0c0.4-0.6,1.1-0.9,1.8-0.9c0.9,0,1.4,0.4,1.4,1.3c0,0.2-0.1,0.6-0.1,1l-0.6,2.8h-0.8
	l0.6-2.9c0-0.2,0.1-0.6,0.1-0.8c0-0.5-0.4-0.7-0.9-0.7c-0.5,0-0.9,0.3-1.2,0.6c-0.3,0.2-0.4,0.6-0.5,1l-0.6,2.8h-0.8L142.6,38z"/>
<path class="st3" d="M151.3,42.9h-0.8l0.2-0.7h0c-0.5,0.6-1,0.8-1.6,0.8c-1.3,0-2-0.8-2-2c0-1.5,1-3.2,2.8-3.2
	c0.6,0,1.4,0.2,1.5,0.9h0l0.5-2.7h0.8L151.3,42.9z M149.2,42.3c1.2,0,1.9-1.4,1.9-2.5c0-0.7-0.4-1.3-1.3-1.3c-1.3,0-2,1.3-2,2.4
	C147.9,41.8,148.3,42.3,149.2,42.3"/>
<path class="st3" d="M153.2,39.5c0.2-1.1,1.1-1.6,2.2-1.6c1,0,1.8,0.3,1.8,1.3c0,0.3-0.1,0.6-0.2,0.9l-0.3,1.4
	c0,0.2-0.1,0.5-0.1,0.7c0,0.2,0.1,0.3,0.2,0.3c0.1,0,0.2,0,0.3-0.1l-0.1,0.6c-0.1,0.1-0.4,0.1-0.5,0.1c-0.5,0-0.7-0.3-0.6-0.7l0,0
	c-0.3,0.5-0.8,0.7-1.7,0.7c-0.8,0-1.5-0.4-1.5-1.4c0-1.4,1.4-1.5,2.5-1.6c0.9-0.1,1.2-0.1,1.2-0.8c0-0.5-0.6-0.7-1-0.7
	c-0.6,0-1.2,0.3-1.3,0.9H153.2z M154.3,42.3c0.6,0,1.1-0.2,1.4-0.7c0.3-0.4,0.3-0.8,0.4-1.3h0c-0.4,0.2-1,0.3-1.6,0.3
	c-0.6,0.1-1.1,0.3-1.1,0.9C153.4,42.1,153.8,42.3,154.3,42.3"/>
</svg>
