<svg id="Layer_1" data-name="Layer 1" xmlns="http://www.w3.org/2000/svg" viewBox="0 0 260 260"><defs><style>.cls-1{fill:#25a6b3;}</style></defs><title>logo</title><path class="cls-1" d="M130,247.41c-31.6,0-64.1-7.62-96.54-22.69l-.79-.39-.39-.8A219.85,219.85,0,0,1,10,128.4c0-32.13,7.4-63.62,21.94-93.64l.42-.8.82-.38a226,226,0,0,1,96-21c31.41,0,64.94,7.86,96.95,22.72l.84.35.37.83C242.17,67.11,250,100,250,131.64s-7.49,63-22.38,93.66l-.36.77-.85.39A230.67,230.67,0,0,1,130,247.41M36.44,220.59C68,235.1,99.42,242.44,130,242.44a225.94,225.94,0,0,0,93.45-20.09c14.28-29.66,21.5-60.2,21.5-90.71s-7.53-62.48-21.82-92.24C192,25.13,159.58,17.55,129.18,17.55a221.18,221.18,0,0,0-93,20.13c-14,29.1-21.09,59.62-21.09,90.71a214.91,214.91,0,0,0,21.36,92.2"/><path class="cls-1" d="M124.18,188.43c0-9.32.09-34.28-.13-37.37.2-37.11-26.73-63.32-43.74-61.29-11.78,1-21.63,5.86-26.94,19.71-4.9,12.88-.51,30.05,15.8,34.09,17.47,4.31,27.66,7.91,35,13,9,6.19,16.41,18.05,16.59,31.87Z"/><path class="cls-1" d="M116.88,188.46a34.06,34.06,0,0,0-15.31-28.24c-7.74-5-18.11-8.32-34.82-12.57-5.18-1.34-10.57-4.28-12.24-8C50.06,144.09,49.25,154.14,50,160c.91,6.8,8.84,18,20.79,18.45,7.27.31,16.5-1.55,20.92-2.51,7.62-1.65,19.69,3.14,21.6,12.46Z"/><path class="cls-1" d="M130.35,31.91c-20.24,0-37.73,13.39-37.67,36.56.08,19.48,15.67,29.92,21.26,37.33,8.43,11.23,13,24.53,13.46,44.88.39,16.16.36,32.14.44,37.78h4.45c-.06-5.92-.26-22.87,0-38.29.3-20.36,5-33.13,13.45-44.37,5.63-7.41,21.24-17.85,21.26-37.33.08-23.17-17.37-36.56-37.62-36.56"/><path class="cls-1" d="M135.48,188.43c0-9.32-.1-34.28.13-37.37-.19-37.11,26.7-63.32,43.73-61.29,11.78,1,21.63,5.86,26.95,19.71,4.92,12.88.49,30.05-15.79,34.09-17.47,4.31-27.66,7.91-35.06,13-9,6.19-15.89,18.05-16.1,31.87Z"/><path class="cls-1" d="M142.79,188.46A34.11,34.11,0,0,1,158,160.22c7.76-5,18.14-8.32,34.86-12.57,5.2-1.34,10.59-4.28,12.24-8,4.46,4.49,5.26,14.54,4.48,20.42-.94,6.8-8.85,18-20.75,18.45-7.33.31-16.57-1.55-21-2.51-7.62-1.65-19.71,3.14-21.64,12.46Z"/><path class="cls-1" d="M148.5,226.82l-2.6-18.94,6.27-.94c1.51-.22,3.37,0,4.11,1a5.37,5.37,0,0,1,1.26,3.13,4.11,4.11,0,0,1-2.07,4.41v.08c2,0,3.26,1.45,3.61,3.92a12,12,0,0,1,.08,2.85c-.43,2.49-1.91,3.28-4.43,3.62Zm4-3.39a5.31,5.31,0,0,0,2.07-.52c.9-.57.83-1.84.7-2.78-.3-2.06-.84-2.86-3-2.51l-1.37.21.87,5.7Zm-1.33-8.75c.83-.12,2-.24,2.43-1a2.83,2.83,0,0,0,.36-2.12c-.26-1.38-.7-2.25-2.48-1.91l-1.62.26.64,4.89Z"/><path class="cls-1" d="M175.78,215.71c0,.35.09.74.12,1.1.51,3.46-.12,6.32-4,7.11-5.74,1.11-6.83-2.45-7.83-7.46l-.56-2.7c-.8-4.77-1.12-8.39,4.48-9.5,3.13-.59,5.22.69,6.09,3.83a8.39,8.39,0,0,1,.37,1.38l-3.45.72c-.38-1.18-.9-3.3-2.44-3.12-2.79.33-1.87,3.77-1.59,5.22l1,5.2c.29,1.55.93,4.05,3.32,3.6,1.95-.4,1.1-3.44.92-4.68Z"/><path class="cls-1" d="M181.28,221.58,180.09,202l4.62-1.41,9.67,17-3.63,1.08-2.29-4.35-4,1.22.52,4.94Zm2.78-9.16,2.95-.85-3.87-7.92Z"/><path class="cls-1" d="M66.9,206.82c1.45-4.63,2.73-8,8.23-6.52,3,.81,4.79,2.13,4.69,5.55a11.2,11.2,0,0,1-.43,2.27l-3.43-1c.45-1.89.73-3.39-1.58-4.09-2.71-.75-3.36,2.51-3.71,3.94l-1.41,5.13c-.43,1.5-1,4,1.41,4.68,1.95.53,3.13-1.39,3.84-4.2L72.1,212l.86-3,5.63,1.79-2.68,9.93L73.31,220l.6-2.08h-.08a3.61,3.61,0,0,1-3.94,1.64c-5.64-1.52-5-5.21-3.7-10.14Z"/><path class="cls-1" d="M88.07,215.12l-1.69,8.06-3.84-.81,4.09-18.83L93.16,205c3.82.85,4.95,2.52,4.42,6-.3,2-1.3,4.14-3.73,4l0,0c2,.71,2.23,1.73,1.88,3.53-.15.77-1.24,5.35-.49,6.11v.56l-3.94-1a21.72,21.72,0,0,1,.62-4.83c.23-1.15.57-2.71-.55-3.3a7.22,7.22,0,0,0-2.23-.69Zm.66-2.89,2.58.68c1.58.23,2.44-.59,2.74-2.47S94,208,92.56,207.7l-2.76-.57Z"/><path class="cls-1" d="M112.73,207.61l3.79.42-1.62,13.24c-.79,4.2-2.41,6-7,5.44s-5.81-2.74-5.55-7L104,206.55l3.8.45-1.63,12.91c-.16,1.4-.49,3.49,2,3.71,2.2.19,2.71-1.28,3-3.1Z"/><path class="cls-1" d="M121,227.24l.46-18.93,7.28.07c3.43.05,4.45,2.81,4.42,5.48a5.75,5.75,0,0,1-1.86,4.5,6.57,6.57,0,0,1-4,1.12l-2.37-.05-.2,7.93Zm3.92-10.7,1.91,0c1.59,0,2.59-.65,2.64-3s-.84-2.54-2.85-2.57l-1.53,0Z"/></svg>