<svg id="Layer_1" data-name="Layer 1" xmlns="http://www.w3.org/2000/svg" viewBox="0 0 160 50"><defs><style>.cls-1,.cls-2{fill:#fff;}.cls-2{fill-rule:evenodd;}</style></defs><title>logo</title><path class="cls-1" d="M86,9.71l-3.87,7a8.55,8.55,0,0,0-5.52-2c-5.39,0-7.37,4-7.37,6.81,0,2.09,1.17,5.17,6,5.17a11.51,11.51,0,0,0,6.22-2l-3.84,7.88a13.29,13.29,0,0,1-4.48.87c-8.58.26-11.83-5-11.83-10.35A16.34,16.34,0,0,1,77.9,7.31a3.78,3.78,0,0,1,1.89.47l.75-.65Z"/><path class="cls-1" d="M102,7.57l1.09,25.29H95.32l-.2-4.34H89.42L87.6,32.86h-9l9.09-17.7H85.88l4.24-7.59ZM94.7,16l-2.8,6.72h3Z"/><path class="cls-1" d="M56.15,7.65c4,0,6.27,2.19,6.27,5.32,0,2.89-2.39,5.44-5,6.76,2.7,1,2.93,3.41,2.93,5.13,0,4.14-4.18,8-9.61,8H38.9l4.42-17.64h-1.9l3.75-7.56s7.73,0,11,0M52.07,17.71a2.45,2.45,0,0,0,2.66-1.8c.4-1.73-1-1.78-1.63-1.78H50.78l-.86,3.59Zm-3.29,4.61-1.08,4.15h2.77a2.94,2.94,0,0,0,2.94-1.89,1.76,1.76,0,0,0-1.76-2.26Z"/><path class="cls-1" d="M18.36,35.42A29.61,29.61,0,0,1,5.88,32.49l-.1-.05-.05-.1A28.43,28.43,0,0,1,2.85,20,27.6,27.6,0,0,1,5.68,7.92l.05-.1.11,0A29.23,29.23,0,0,1,18.26,5.05,30.15,30.15,0,0,1,30.8,8l.11,0,0,.11a28.48,28.48,0,0,1,2.93,12.31A27.56,27.56,0,0,1,31,32.56l0,.1-.11,0a29.83,29.83,0,0,1-12.47,2.71M6.27,32a28.91,28.91,0,0,0,12.1,2.83,29.22,29.22,0,0,0,12.09-2.6,26.92,26.92,0,0,0,2.78-11.73A27.8,27.8,0,0,0,30.41,8.52,29.47,29.47,0,0,0,18.26,5.7a28.61,28.61,0,0,0-12,2.6A26.93,26.93,0,0,0,3.5,20,27.79,27.79,0,0,0,6.27,32"/><path class="cls-1" d="M17.61,27.79c0-1.21,0-4.43,0-4.83,0-4.8-3.46-8.19-5.66-7.93a3.73,3.73,0,0,0-3.48,2.55,3.21,3.21,0,0,0,2,4.41A13.81,13.81,0,0,1,15,23.68a5.16,5.16,0,0,1,2.15,4.12Z"/><path class="cls-1" d="M16.67,27.8a4.41,4.41,0,0,0-2-3.65,15.27,15.27,0,0,0-4.5-1.63,2.42,2.42,0,0,1-1.58-1A3.61,3.61,0,0,0,8,24.12a3,3,0,0,0,2.69,2.39,11.91,11.91,0,0,0,2.71-.32,2.47,2.47,0,0,1,2.79,1.61Z"/><path class="cls-1" d="M18.41,7.55a4.61,4.61,0,0,0-4.87,4.73c0,2.52,2,3.87,2.75,4.83A9.39,9.39,0,0,1,18,22.91c.05,2.09,0,4.16.06,4.89h.58c0-.77,0-3,0-5a9.05,9.05,0,0,1,1.74-5.74c.73-1,2.75-2.31,2.75-4.83a4.6,4.6,0,0,0-4.87-4.73"/><path class="cls-1" d="M19.08,27.79c0-1.21,0-4.43,0-4.83,0-4.8,3.45-8.19,5.65-7.93a3.73,3.73,0,0,1,3.48,2.55,3.21,3.21,0,0,1-2,4.41,13.83,13.83,0,0,0-4.53,1.68,5.12,5.12,0,0,0-2.08,4.12Z"/><path class="cls-1" d="M20,27.8a4.41,4.41,0,0,1,2-3.65,15.32,15.32,0,0,1,4.51-1.63,2.41,2.41,0,0,0,1.58-1,3.61,3.61,0,0,1,.58,2.64A3,3,0,0,1,26,26.51a11.89,11.89,0,0,1-2.71-.32,2.48,2.48,0,0,0-2.8,1.61Z"/><path class="cls-1" d="M20.76,32.76l-.34-2.45.81-.12a.61.61,0,0,1,.53.13.69.69,0,0,1,.16.41.53.53,0,0,1-.27.57h0c.26,0,.42.19.47.51a1.55,1.55,0,0,1,0,.37c-.05.32-.25.42-.57.47Zm.52-.44a.69.69,0,0,0,.27-.07c.12-.07.11-.24.09-.36s-.11-.37-.39-.33l-.18,0,.11.74Zm-.17-1.13c.11,0,.25,0,.31-.13a.37.37,0,0,0,0-.27c0-.18-.09-.29-.32-.25l-.21,0,.08.63Z"/><path class="cls-1" d="M24.29,31.32s0,.1,0,.14c.07.45,0,.82-.52.92-.74.14-.88-.32-1-1l-.07-.35c-.1-.62-.14-1.08.58-1.23a.62.62,0,0,1,.79.49,1.09,1.09,0,0,1,0,.18l-.45.09c0-.15-.12-.43-.32-.4-.36,0-.24.49-.21.67l.14.67c0,.2.12.52.43.47s.14-.45.12-.6Z"/><path class="cls-1" d="M25,32.08l-.15-2.53.6-.18,1.25,2.2-.47.14-.3-.56-.52.16.07.64Zm.36-1.19.38-.11-.5-1Z"/><path class="cls-1" d="M10.21,30.17c.19-.6.35-1,1.06-.84.38.1.62.27.61.72a1.45,1.45,0,0,1-.06.29l-.44-.12c.06-.24.1-.44-.2-.53s-.43.32-.48.51l-.18.66c-.06.19-.12.52.18.6s.4-.18.5-.54l-.31-.08.11-.38.73.23L11.37,32,11,31.88l.08-.27h0a.47.47,0,0,1-.51.21c-.73-.2-.65-.67-.48-1.31Z"/><path class="cls-1" d="M12.94,31.25l-.22,1-.5-.11.53-2.43.84.19c.49.11.64.33.57.78,0,.26-.17.54-.48.51h0c.26.09.29.22.24.46s-.16.69-.06.79v.07l-.51-.13a2.81,2.81,0,0,1,.08-.62c0-.15.07-.35-.07-.43a.93.93,0,0,0-.29-.09Zm.09-.37.33.09c.2,0,.32-.08.35-.32s0-.31-.19-.35l-.36-.07Z"/><path class="cls-1" d="M16.13,30.28l.49.05L16.41,32c-.1.54-.31.78-.91.7s-.75-.35-.72-.9L15,30.14l.49.06-.21,1.67c0,.18-.06.45.26.48s.35-.16.38-.4Z"/><path class="cls-1" d="M17.21,32.81l.06-2.45h.94c.44,0,.57.36.57.71a.74.74,0,0,1-.24.58.85.85,0,0,1-.52.15h-.31l0,1Zm.51-1.38H18c.21,0,.33-.08.34-.38s-.11-.33-.37-.33h-.2Z"/><path class="cls-2" d="M124.48,32.85h6.58l2.13-12.62h3.58l.92-5.15h-3.61l.12-.71a2,2,0,0,1,.83-1.44,2.72,2.72,0,0,1,1.63-.41,6.5,6.5,0,0,1,1.41.19l1.51-4.51a12.35,12.35,0,0,0-3.81-.67,8.38,8.38,0,0,0-5.5,1.74c-1.23,1-2.26,3.17-2.71,5.85h-2.5l-.89,5.11h2.51Z"/><polygon class="cls-1" points="110.1 7.54 116.61 7.54 112.22 32.85 105.69 32.85 110.1 7.54"/><polygon class="cls-2" points="116.99 15.12 123.5 15.12 120.45 32.85 113.92 32.85 116.99 15.12"/><path class="cls-2" d="M155.92,28.15a9.17,9.17,0,0,1-2.55,2.79,9.83,9.83,0,0,1-2.95,1.56,14.93,14.93,0,0,1-5.55.76,8.76,8.76,0,0,1-6.19-2.09,6.1,6.1,0,0,1-2-3.86,10.49,10.49,0,0,1,.4-4.88,13.75,13.75,0,0,1,.85-2.11,9.85,9.85,0,0,1,3.18-3.38,10.66,10.66,0,0,1,4-1.77,12.62,12.62,0,0,1,3.4-.45,10.25,10.25,0,0,1,6.12,1.76c1.68,1.21,2.6,3.19,2.54,5.94a21.43,21.43,0,0,1-.4,3.07h-13.5a3.89,3.89,0,0,0,.48,2.38,2.86,2.86,0,0,0,2.43,1.3,3.69,3.69,0,0,0,3.1-1.5Zm-5.52-5.71c.1-1.66,0-2.08-.63-2.83a2.67,2.67,0,0,0-2-.67c-1.91,0-3.34,1.54-3.86,3.51Z"/><path class="cls-2" d="M117.78,10.81a3.3,3.3,0,1,1,3.3,3.3,3.3,3.3,0,0,1-3.3-3.3"/><path class="cls-1" d="M42.41,39.42c0-.57-.46-.86-1-.86s-1.06.14-1.06.64.65.64,1.31.91,1.32.62,1.32,1.4c0,1.11-1.07,1.54-2,1.54-1.14,0-2-.41-2-1.68h.82c0,.74.59,1,1.27,1,.53,0,1.13-.19,1.13-.76s-.65-.67-1.31-.94S39.5,40,39.5,39.27c0-.93.92-1.44,1.85-1.44s1.88.41,1.88,1.58Z"/><path class="cls-1" d="M44.56,40.69a3.17,3.17,0,0,0,0,.43,1.21,1.21,0,0,0,1.29,1.2,1.42,1.42,0,0,0,1.44-1h.82A2.17,2.17,0,0,1,45.82,43a1.91,1.91,0,0,1-2.11-2c0-1.9,1.2-3.2,2.56-3.2s2.11.8,2.11,2.2a2.93,2.93,0,0,1-.08.64Zm3-.72a1.16,1.16,0,0,0-1.16-1.4A1.76,1.76,0,0,0,44.68,40Z"/><path class="cls-1" d="M49.79,38h.79l-.15.75h0a2.2,2.2,0,0,1,1.77-.87c.93,0,1.39.41,1.39,1.28a5.3,5.3,0,0,1-.15,1l-.61,2.83H52l.63-2.9a5.53,5.53,0,0,0,.11-.77c0-.47-.38-.7-.86-.7a1.79,1.79,0,0,0-1.23.58,2,2,0,0,0-.55,1l-.58,2.75h-.82Z"/><path class="cls-1" d="M54.64,39.45a2,2,0,0,1,2.16-1.62c1,0,1.82.26,1.82,1.27a4.88,4.88,0,0,1-.15.91l-.32,1.36a4.09,4.09,0,0,0-.13.71c0,.23.11.31.24.31a.89.89,0,0,0,.26-.07l-.12.61a1.25,1.25,0,0,1-.5.12.58.58,0,0,1-.64-.7l0,0a1.87,1.87,0,0,1-1.66.72A1.33,1.33,0,0,1,54,41.64c0-1.44,1.41-1.54,2.51-1.64.86-.08,1.25-.12,1.25-.78s-.57-.66-1-.66c-.63,0-1.24.25-1.34.9Zm1.11,2.87a1.54,1.54,0,0,0,1.39-.66,3.56,3.56,0,0,0,.43-1.28h0a4.83,4.83,0,0,1-1.6.34c-.59.09-1.11.27-1.11.9,0,.46.43.69.9.69"/><path class="cls-1" d="M60.12,38h.79l-.15.75h0a2.2,2.2,0,0,1,1.77-.87c.93,0,1.39.41,1.39,1.28a5.13,5.13,0,0,1-.15,1l-.61,2.83h-.82L63,40a5.38,5.38,0,0,0,.11-.77c0-.47-.39-.7-.86-.7a1.79,1.79,0,0,0-1.23.58,2.07,2.07,0,0,0-.55,1l-.58,2.75h-.82Z"/><path class="cls-1" d="M66.6,38h1l-.15.72h-1l-.62,2.92a3,3,0,0,0,0,.33c0,.26.24.34.49.34a1.56,1.56,0,0,0,.47-.09l-.14.75A2.83,2.83,0,0,1,66,43c-.61,0-1.11-.17-1.11-.81a2.18,2.18,0,0,1,0-.42l.65-3.09h-.84l.15-.72h.84l.31-1.47h.82Z"/><path class="cls-1" d="M68.49,38h.82l-1,5h-.82Zm1-.89h-.83l.21-1h.83Z"/><path class="cls-1" d="M70.14,39.45a2,2,0,0,1,2.15-1.62c1,0,1.82.26,1.82,1.27A4.79,4.79,0,0,1,74,40l-.32,1.36a4,4,0,0,0-.14.71c0,.23.11.31.24.31a.87.87,0,0,0,.26-.07l-.12.61a1.25,1.25,0,0,1-.5.12.58.58,0,0,1-.65-.7l0,0a1.87,1.87,0,0,1-1.67.72,1.33,1.33,0,0,1-1.52-1.4C69.54,40.2,71,40.1,72,40c.87-.08,1.25-.12,1.25-.78s-.57-.66-1-.66c-.62,0-1.24.25-1.34.9Zm1.11,2.87a1.54,1.54,0,0,0,1.39-.66,3.48,3.48,0,0,0,.43-1.28h0a4.85,4.85,0,0,1-1.6.34c-.59.09-1.1.27-1.1.9,0,.46.43.69.89.69"/><path class="cls-1" d="M78,39.42c0-.57-.46-.86-1-.86s-1.06.14-1.06.64.65.64,1.31.91,1.32.62,1.32,1.4c0,1.11-1.07,1.54-2,1.54-1.14,0-2-.41-2-1.68h.82c0,.74.59,1,1.27,1s1.14-.19,1.14-.76-.66-.67-1.31-.94-1.32-.6-1.32-1.34c0-.93.92-1.44,1.85-1.44s1.87.41,1.87,1.58Z"/><path class="cls-1" d="M79.76,39.45a2,2,0,0,1,2.15-1.62c1,0,1.82.26,1.82,1.27a4.72,4.72,0,0,1-.16.91l-.32,1.36a4.09,4.09,0,0,0-.13.71c0,.23.11.31.24.31a.88.88,0,0,0,.26-.07l-.12.61A1.25,1.25,0,0,1,83,43a.58.58,0,0,1-.64-.7l0,0a1.87,1.87,0,0,1-1.66.72,1.33,1.33,0,0,1-1.52-1.4c0-1.44,1.41-1.54,2.51-1.64.87-.08,1.25-.12,1.25-.78s-.57-.66-1-.66c-.63,0-1.24.25-1.34.9Zm1.11,2.87a1.55,1.55,0,0,0,1.4-.66,3.57,3.57,0,0,0,.43-1.28h0a4.85,4.85,0,0,1-1.6.34c-.59.09-1.11.27-1.11.9,0,.46.43.69.9.69"/><path class="cls-1" d="M87.93,38h.76l-.18.74,0,0a2.27,2.27,0,0,1,1.73-.88,1.13,1.13,0,0,1,1.25.9,2.17,2.17,0,0,1,1.7-.9c.7,0,1.39.31,1.39,1.12a5,5,0,0,1-.14,1l-.63,3H93l.69-3.15a2.66,2.66,0,0,0,.08-.54.7.7,0,0,0-.76-.67,1.77,1.77,0,0,0-1.25.69,2.23,2.23,0,0,0-.46,1.12l-.55,2.57h-.82l.6-2.83a6.53,6.53,0,0,0,.15-.87.62.62,0,0,0-.69-.66,1.8,1.8,0,0,0-1.22.64,1.89,1.89,0,0,0-.53,1.13l-.56,2.61h-.82Z"/><path class="cls-1" d="M96.06,40.69a3,3,0,0,0,0,.43,1.21,1.21,0,0,0,1.29,1.2,1.42,1.42,0,0,0,1.43-1h.82A2.17,2.17,0,0,1,97.32,43a1.9,1.9,0,0,1-2.11-2c0-1.9,1.19-3.2,2.56-3.2s2.11.8,2.11,2.2a3.15,3.15,0,0,1-.08.64Zm3-.72a1.16,1.16,0,0,0-1.16-1.4A1.77,1.77,0,0,0,96.17,40Z"/><polygon class="cls-1" points="101.67 36.06 102.49 36.06 101.05 42.93 100.23 42.93 101.67 36.06"/><path class="cls-1" d="M103.41,38h.82l-1,5h-.82Zm1-.89h-.83l.21-1h.83Z"/><path class="cls-1" d="M105.55,38h.79l-.15.75h0a2.2,2.2,0,0,1,1.77-.87c.93,0,1.39.41,1.39,1.28a5.37,5.37,0,0,1-.15,1l-.61,2.83h-.82l.64-2.9a5.39,5.39,0,0,0,.12-.77c0-.47-.39-.7-.87-.7a1.79,1.79,0,0,0-1.23.58,2.06,2.06,0,0,0-.55,1l-.58,2.75h-.82Z"/><path class="cls-1" d="M114.27,42.93h-.77l.17-.71h0a2,2,0,0,1-3.6-1.21,3,3,0,0,1,2.76-3.16,1.49,1.49,0,0,1,1.55.88h0l.53-2.65h.81Zm-2.11-.61c1.24,0,1.94-1.43,1.94-2.47a1.19,1.19,0,0,0-1.25-1.29c-1.3,0-2,1.35-2,2.45a1.16,1.16,0,0,0,1.28,1.32"/><path class="cls-1" d="M119.56,42.93h-.79l.15-.75h0a2.2,2.2,0,0,1-1.77.87c-.93,0-1.39-.4-1.39-1.28a5.32,5.32,0,0,1,.15-1L116.5,38h.82l-.64,2.9a5.67,5.67,0,0,0-.11.77c0,.47.38.7.87.7a2,2,0,0,0,1.78-1.62l.58-2.75h.82Z"/><path class="cls-1" d="M121.95,38h.79l-.15.75h0a2.2,2.2,0,0,1,1.77-.87c.93,0,1.39.41,1.39,1.28a5.44,5.44,0,0,1-.14,1L125,42.93h-.82l.63-2.9a5.39,5.39,0,0,0,.12-.77c0-.47-.38-.7-.87-.7a1.79,1.79,0,0,0-1.23.58,2,2,0,0,0-.55,1l-.58,2.75h-.82Z"/><path class="cls-1" d="M130.71,42.2a9.22,9.22,0,0,1-.39,1.36,2.21,2.21,0,0,1-2.26,1.38c-1,0-2-.43-2-1.54h.82c0,.66.63.82,1.25.82,1.27,0,1.52-1,1.78-2l0,0a1.78,1.78,0,0,1-1.55.76,1.83,1.83,0,0,1-1.87-2.06c0-1.47,1-3.07,2.59-3.07a1.55,1.55,0,0,1,1.58,1v0h0l.15-.92h.77Zm-2.17,0c1.23,0,1.81-1.39,1.81-2.38a1.17,1.17,0,0,0-1.27-1.3c-1.14,0-1.76,1.43-1.76,2.35a1.21,1.21,0,0,0,1.22,1.34"/><path class="cls-1" d="M132.81,38h.82l-1,5h-.82Zm1-.89H133l.21-1H134Z"/><path class="cls-1" d="M137.14,39.45a2,2,0,0,1,2.15-1.62c1,0,1.82.26,1.82,1.27A4.8,4.8,0,0,1,141,40l-.32,1.36a3.91,3.91,0,0,0-.14.71c0,.23.11.31.24.31a.88.88,0,0,0,.26-.07l-.13.61a1.24,1.24,0,0,1-.5.12.58.58,0,0,1-.64-.7l0,0a1.87,1.87,0,0,1-1.66.72,1.33,1.33,0,0,1-1.52-1.4c0-1.44,1.42-1.54,2.51-1.64.87-.08,1.25-.12,1.25-.78s-.57-.66-1-.66c-.63,0-1.24.25-1.33.9Zm1.11,2.87a1.55,1.55,0,0,0,1.39-.66,3.55,3.55,0,0,0,.43-1.28h0a4.84,4.84,0,0,1-1.6.34c-.59.09-1.11.27-1.11.9,0,.46.43.69.89.69"/><path class="cls-1" d="M142.62,38h.79l-.16.75h0a2.21,2.21,0,0,1,1.77-.87c.93,0,1.38.41,1.38,1.28a5.32,5.32,0,0,1-.14,1l-.61,2.83h-.82l.63-2.9a5.53,5.53,0,0,0,.11-.77c0-.47-.38-.7-.86-.7a1.8,1.8,0,0,0-1.23.58,2.08,2.08,0,0,0-.55,1l-.58,2.75h-.82Z"/><path class="cls-1" d="M151.34,42.93h-.77l.17-.71h0a2,2,0,0,1-3.6-1.21,3,3,0,0,1,2.76-3.16,1.5,1.5,0,0,1,1.55.88h0l.53-2.65h.81Zm-2.12-.61c1.24,0,1.94-1.43,1.94-2.47a1.19,1.19,0,0,0-1.25-1.29c-1.3,0-2,1.35-2,2.45a1.16,1.16,0,0,0,1.28,1.32"/><path class="cls-1" d="M153.18,39.45a2,2,0,0,1,2.16-1.62c1,0,1.82.26,1.82,1.27A4.79,4.79,0,0,1,157,40l-.32,1.36a4,4,0,0,0-.13.71c0,.23.11.31.24.31a.89.89,0,0,0,.26-.07l-.12.61a1.25,1.25,0,0,1-.5.12.58.58,0,0,1-.64-.7l0,0a1.87,1.87,0,0,1-1.66.72,1.34,1.34,0,0,1-1.52-1.4c0-1.44,1.42-1.54,2.51-1.64.87-.08,1.25-.12,1.25-.78s-.57-.66-1-.66c-.63,0-1.24.25-1.34.9Zm1.11,2.87a1.55,1.55,0,0,0,1.4-.66,3.58,3.58,0,0,0,.43-1.28h0a4.85,4.85,0,0,1-1.6.34c-.59.09-1.11.27-1.11.9,0,.46.43.69.89.69"/></svg>