<svg id="Layer_1" data-name="Layer 1" xmlns="http://www.w3.org/2000/svg" xmlns:xlink="http://www.w3.org/1999/xlink" viewBox="0 0 130 30"><defs><style>.cls-1{fill:none;}.cls-2{fill:#414042;}.cls-3{clip-path:url(#clip-path);}.cls-4{fill:#01bace;}.cls-12,.cls-14,.cls-5,.cls-7{font-size:7.95px;fill:#231f20;font-family:BPreplay-Italic, BPreplay;font-style:italic;}.cls-5{letter-spacing:-0.01em;}.cls-6{letter-spacing:0em;}.cls-8{letter-spacing:-0.01em;}.cls-9{letter-spacing:-0.03em;}.cls-10{letter-spacing:-0.02em;}.cls-11,.cls-14{letter-spacing:-0.06em;}.cls-12{letter-spacing:-0.05em;}.cls-13{letter-spacing:-0.03em;}.cls-15{letter-spacing:0em;}</style><clipPath id="clip-path"><rect class="cls-1" x="3.61" y="2.12" width="122.78" height="25.75"/></clipPath></defs><title>icon</title><path class="cls-2" d="M38.31,8.45a.71.71,0,0,1,.81-.8c.57,0,.84.26.84.8v2.21h3V8.45c0-.55.27-.8.83-.8s.84.26.84.8v6.14c0,.53-.29.8-.84.8s-.83-.27-.83-.8V12.26H40v2.32a.72.72,0,0,1-.83.8c-.56,0-.82-.27-.82-.8Z"/><path class="cls-2" d="M47.77,14.12c.47,0,1-.18,1-.53s-.46-.41-.87-.41-.87.14-.87.46.39.48.78.48m0-4.52c1.32,0,2.62.6,2.62,2.12v3a.77.77,0,0,1-.81.76c-.18,0-.62-.13-.65-.54v-.19a2.37,2.37,0,0,1-1.69.72,1.69,1.69,0,0,1-1.85-1.61A2,2,0,0,1,47.47,12a2.68,2.68,0,0,1,1.48.41v-.49c0-.59-.68-.94-1.26-.94-.43,0-.77.13-1.14.13s-.77-.12-.77-.62c0-.28.21-.5.54-.63a4,4,0,0,1,1.43-.27"/><path class="cls-2" d="M51,8.12a.71.71,0,0,1,.8-.78.72.72,0,0,1,.81.78V14.6c0,.53-.26.77-.8.77S51,15.13,51,14.6Z"/><path class="cls-2" d="M55.08,12.4c0,.69.32,1.68,1.05,1.68s1.06-.8,1.06-1.51-.32-1.62-1.06-1.62-1.05.73-1.05,1.45m3.75.11a2.71,2.71,0,0,1-2.69,3,2.76,2.76,0,0,1-2.69-3,2.67,2.67,0,0,1,2.69-2.91,2.73,2.73,0,0,1,2.69,3"/><path class="cls-2" d="M64.05,13.79h1.56a.88.88,0,0,0,1-.84c0-.49-.41-1-1.31-1H64.05Zm1.21-3.08a.72.72,0,0,0,.82-.7.81.81,0,0,0-.9-.76H64.05v1.46ZM62.39,8.56a.78.78,0,0,1,.87-.89h1.89c1,0,2.53.57,2.53,2.08,0,.51-.53,1.29-1,1.34A2.06,2.06,0,0,1,68.22,13a2.41,2.41,0,0,1-2.51,2.36H63.42a1.2,1.2,0,0,1-.69-.15.88.88,0,0,1-.34-.75Z"/><path class="cls-2" d="M74.37,13.11a.76.76,0,0,1,.83.8.86.86,0,0,1-.31.69,3.54,3.54,0,0,1-2.36.88,3.73,3.73,0,0,1-3.75-4,3.8,3.8,0,0,1,3.8-4.07,3.48,3.48,0,0,1,2.36.86.9.9,0,0,1,.32.67.79.79,0,0,1-.82.83,1,1,0,0,1-.63-.24,1.83,1.83,0,0,0-1.26-.47,2.12,2.12,0,0,0-2,2.35,2.12,2.12,0,0,0,2,2.35,1.72,1.72,0,0,0,1.24-.43.75.75,0,0,1,.57-.24"/><path class="cls-2" d="M78.65,12.37h1.47c-.28-.78-.35-.91-.72-2ZM80.74,14H78.1c-.1.26-.19.51-.28.74a.88.88,0,0,1-.88.65.73.73,0,0,1-.79-.78,1.15,1.15,0,0,1,.06-.33l2.18-5.9a1.07,1.07,0,0,1,2,0c2.29,6,2.31,6.14,2.31,6.24a.74.74,0,0,1-.81.77.79.79,0,0,1-.8-.51Z"/><path class="cls-2" d="M88.18,9.67a1.6,1.6,0,0,1-.56.12.75.75,0,0,1-.79-.74.83.83,0,0,1,.68-.79L89,7.86a.76.76,0,0,1,.73.47,1.36,1.36,0,0,1,.08.61v5.55a.83.83,0,0,1-1.67,0Z"/><path class="cls-2" d="M95.5,7.88a.78.78,0,0,1,.81.82c0,.52-.26.77-.81.77H93.78c0,.23-.05.36-.12.76a2.45,2.45,0,0,1,2.68,2.5,2.61,2.61,0,0,1-2.73,2.67c-1.34,0-2.37-.89-2.37-1.56A.73.73,0,0,1,92,13.1a.85.85,0,0,1,.65.34,1.4,1.4,0,0,0,1,.44,1,1,0,0,0,1-1,1,1,0,0,0-1-1.05c-.34,0-.61.15-.92.15-.46,0-.83-.17-.83-.76,0,0,0-.21.49-2.55a.9.9,0,0,1,1-.73Z"/><path class="cls-2" d="M101.26,11.59c0-.94-.27-2.35-1-2.35s-1.07,1.5-1.07,2.33.28,2.28,1.06,2.28,1-1.47,1-2.26m-1-3.94c2,0,2.69,2.26,2.69,3.89s-.72,3.88-2.71,3.88-2.76-2.19-2.76-3.86.7-3.91,2.73-3.91Z"/><path class="cls-2" d="M107.36,11.59c0-.94-.27-2.35-1-2.35s-1.07,1.5-1.07,2.33.28,2.28,1.06,2.28,1-1.47,1-2.26m-1-3.94c2,0,2.69,2.26,2.69,3.89s-.71,3.88-2.71,3.88-2.76-2.19-2.76-3.86.71-3.91,2.73-3.91Z"/><path class="cls-2" d="M113.09,9.81a.54.54,0,0,0-.54-.58.57.57,0,0,0-.6.58.62.62,0,0,0,.59.69.63.63,0,0,0,.55-.69m-1.36,3.12a.84.84,0,0,0,.84.9.82.82,0,0,0,.8-.88.82.82,0,1,0-1.64,0m-.65-1.71a1.72,1.72,0,0,1-.79-1.46,2.17,2.17,0,0,1,2.27-2.08,2.07,2.07,0,0,1,2.22,2.08,1.75,1.75,0,0,1-.8,1.4A2.22,2.22,0,0,1,115.07,13a2.47,2.47,0,0,1-2.5,2.44A2.4,2.4,0,0,1,110,13a2.08,2.08,0,0,1,1-1.74"/><path class="cls-2" d="M118.75,9.81a.54.54,0,0,0-.54-.58.57.57,0,0,0-.6.58.62.62,0,0,0,.59.69.63.63,0,0,0,.55-.69m-1.36,3.12a.84.84,0,0,0,.84.9.82.82,0,0,0,.8-.88.82.82,0,1,0-1.64,0m-.65-1.71A1.72,1.72,0,0,1,116,9.76a2.17,2.17,0,0,1,2.27-2.08,2.07,2.07,0,0,1,2.22,2.08,1.75,1.75,0,0,1-.8,1.4A2.22,2.22,0,0,1,120.73,13a2.47,2.47,0,0,1-2.49,2.44A2.4,2.4,0,0,1,115.7,13a2.08,2.08,0,0,1,1-1.74"/><g class="cls-3"><path class="cls-2" d="M124.41,9.81a.54.54,0,0,0-.54-.58.57.57,0,0,0-.6.58.62.62,0,0,0,.59.69.63.63,0,0,0,.55-.69m-1.36,3.12a.84.84,0,0,0,.84.9.82.82,0,0,0,.8-.88.82.82,0,1,0-1.64,0m-.65-1.71a1.72,1.72,0,0,1-.79-1.46,2.17,2.17,0,0,1,2.27-2.08,2.07,2.07,0,0,1,2.22,2.08,1.75,1.75,0,0,1-.8,1.4A2.22,2.22,0,0,1,126.39,13a2.47,2.47,0,0,1-2.5,2.44A2.4,2.4,0,0,1,121.36,13a2.08,2.08,0,0,1,1-1.74"/><path class="cls-4" d="M24,12.78a.37.37,0,0,1-.38-.37,5.31,5.31,0,0,0-5.41-5.19.37.37,0,1,1,0-.74,6.06,6.06,0,0,1,6.18,5.93.38.38,0,0,1-.39.37m-1.41,0a.37.37,0,0,1-.38-.37,3.92,3.92,0,0,0-4-3.83.37.37,0,1,1,0-.74,4.68,4.68,0,0,1,4.76,4.57.37.37,0,0,1-.38.37M17.79,9.63a.37.37,0,0,1,.39-.37,3.22,3.22,0,0,1,3.28,3.15.38.38,0,0,1-.77,0A2.47,2.47,0,0,0,18.18,10a.37.37,0,0,1-.39-.37m3.78,7.14c-.66.64-3.15,0-5.63-2.31S12.84,9.72,13.5,9.08s1.28-1.53,2.34-.27.54,1.62-.05,2.19c-.41.4.46,1.42,1.38,2.28s2,1.7,2.39,1.3c.59-.57,1-1.08,2.28-.07s.31,1.69-.27,2.25m3.7-12.68H15.85A9,9,0,0,0,8.07,9.57h0L3.59,21.37c.46-1.09,4.18-1.94,8.74-2h9.42a9,9,0,0,0,7.78-5.48v0L34,2.13c-.46,1.09-4.18,1.94-8.74,2"/></g><text class="cls-5" transform="translate(38.31 25.97)">ww<tspan class="cls-6" x="13.35" y="0">w</tspan></text><text class="cls-7" transform="translate(57.86 25.97)"><tspan class="cls-8">.</tspan><tspan x="1.64" y="0">b</tspan></text><text class="cls-7" transform="translate(63.85 25.97)"><tspan class="cls-9">c</tspan><tspan x="3.77" y="0">a</tspan></text><text class="cls-7" transform="translate(72.58 25.97)"><tspan class="cls-10">l</tspan><tspan x="1.85" y="0">i</tspan></text><text class="cls-7" transform="translate(76.31 25.97)"><tspan class="cls-11">f</tspan><tspan x="2.52" y="0">e</tspan></text><text class="cls-12" transform="translate(83.32 25.97)">.<tspan class="cls-6" x="1.33" y="0">c</tspan></text><text class="cls-7" transform="translate(88.35 25.97)"><tspan class="cls-13">o</tspan><tspan x="4.34" y="0">.</tspan></text><text class="cls-14" transform="translate(94.19 25.97)">i<tspan class="cls-15" x="1.92" y="0">d</tspan></text></svg>